<svg id="Group_555" data-name="Group 555" xmlns="http://www.w3.org/2000/svg" xmlns:xlink="http://www.w3.org/1999/xlink" width="100" height="100" viewBox="0 0 100 100">
  <defs>
    <linearGradient id="linear-gradient" x1="0.019" y1="0.662" x2="0.77" y2="0.167" gradientUnits="objectBoundingBox">
      <stop offset="0" stop-color="#f05a28"/>
      <stop offset="1" stop-color="#be1e2d"/>
    </linearGradient>
    <linearGradient id="linear-gradient-2" x1="-0.032" y1="0.5" x2="1" y2="0.5" gradientUnits="objectBoundingBox">
      <stop offset="0" stop-color="#be1e2d"/>
      <stop offset="0.079" stop-color="#c92b2b"/>
      <stop offset="0.259" stop-color="#de4529"/>
      <stop offset="0.422" stop-color="#eb5428"/>
      <stop offset="0.552" stop-color="#f05a28"/>
      <stop offset="0.709" stop-color="#ed5728"/>
      <stop offset="0.808" stop-color="#e64e28"/>
      <stop offset="0.89" stop-color="#da402a"/>
      <stop offset="0.963" stop-color="#c92b2b"/>
      <stop offset="1" stop-color="#be1e2d"/>
    </linearGradient>
  </defs>
  <circle id="Ellipse_32" data-name="Ellipse 32" cx="50" cy="50" r="50" transform="translate(0)" fill="#002662"/>
  <g id="Group_553" data-name="Group 553">
    <path id="Path_155" data-name="Path 155" d="M57.488,43.414a1.365,1.365,0,0,0-.195-.787c-.021-.038-.044-.075-.066-.11-.152-.236-.559-.6-.734-.815l-6.318-6.29L50,35.25l-7.529,7.5a1.3,1.3,0,0,0-.333.8V58.324c0,.259.149.321.333.139L57.4,43.6A.332.332,0,0,0,57.488,43.414Z" fill="url(#linear-gradient)"/>
    <g id="Group_552" data-name="Group 552">
      <path id="Path_156" data-name="Path 156" d="M57.856,42.761v-.14c0-.11,0-.242,0-.424V27.814a1.3,1.3,0,0,0-.333-.8L42.475,12.03c-.184-.182-.333-.12-.333.139V26.944a1.3,1.3,0,0,0,.333.8L56.493,41.7c.175.215.582.579.734.815.022.035.045.072.066.11a1.365,1.365,0,0,1,.195.787.344.344,0,0,1-.09.191,1.334,1.334,0,0,0,.4-.583,1.164,1.164,0,0,0,.043-.177A.193.193,0,0,0,57.856,42.761Z" fill="url(#linear-gradient-2)"/>
    </g>
  </g>
  <g id="Group_554" data-name="Group 554">
    <path id="Path_157" data-name="Path 157" d="M73.2,69.741A5.316,5.316,0,1,1,78.5,75.279,5.219,5.219,0,0,1,73.2,69.741Zm9.243,0c0-2.5-1.539-4.349-3.928-4.35-2.408,0-3.935,1.845-3.935,4.348,0,2.486,1.523,4.348,3.932,4.349C80.9,74.093,82.437,72.232,82.439,69.744Z" fill="#fff"/>
    <path id="Path_158" data-name="Path 158" d="M12.619,69.712a5.428,5.428,0,0,1,5.7-5.534c.2,0,.413.028.616.047s.393.045.588.081a4.432,4.432,0,0,1,1.039.319,4.782,4.782,0,0,1,.856.506,4.724,4.724,0,0,1,.7.626c.119.131.23.268.336.409.052.069.1.139.154.209.037.053.091.119.078.19s-.1.112-.167.144c-.094.048-.19.091-.283.141l-.927.5c-.08.043-.158.089-.238.133a.4.4,0,0,1-.192.073c-.069,0-.1-.05-.133-.1s-.092-.133-.145-.195a3.282,3.282,0,0,0-.309-.315c-.06-.053-.122-.1-.186-.152a2.81,2.81,0,0,0-1.079-.506,3.438,3.438,0,0,0-.707-.089,3.517,3.517,0,0,0,0,7.027,3.619,3.619,0,0,0,2.279-.816V71.128l-2.823,0v-1.79c0-.038,0-.075,0-.112s0-.058.029-.073a.175.175,0,0,1,.085-.013H22.3a.832.832,0,0,1,.446.061c.145.087.13.23.126.374s0,.268,0,.4v.989c0,.345,0,.691,0,1.036v.848c0,.13,0,.183,0,.313v.084a5.927,5.927,0,0,1-4.557,2.019A5.449,5.449,0,0,1,12.619,69.712Z" fill="#fff"/>
    <path id="Path_159" data-name="Path 159" d="M24.006,73.543v-.01c0-.054.033-.089.062-.129l.258-.361.324-.455.308-.432c.047-.065.093-.132.137-.2.075-.118.123-.117.194-.052.043.039.082.079.124.117l.212.185c.02.018.039.035.059.051a4.685,4.685,0,0,0,.575.39,4.785,4.785,0,0,0,.665.32,4.112,4.112,0,0,0,.749.206,7.31,7.31,0,0,0,.823.086c.034,0,.068.006.1.006,1.252,0,1.862-.576,1.862-1.187,0-1.893-6.158-.6-6.157-4.624,0-1.781,1.541-3.255,4.059-3.255a8.7,8.7,0,0,1,.955.062,6.187,6.187,0,0,1,.9.167,5.72,5.72,0,0,1,.823.285,4.982,4.982,0,0,1,.743.4,7.362,7.362,0,0,1,.609.46.169.169,0,0,1,.036.261l-.266.35-.335.441-.316.417a.766.766,0,0,0-.053.074.481.481,0,0,1-.146.145c-.124.045-.224-.056-.3-.116s-.186-.142-.283-.208a3.951,3.951,0,0,0-.585-.329,4.7,4.7,0,0,0-.626-.23,4.543,4.543,0,0,0-.641-.137c-.213-.029-.427-.042-.641-.052-.026,0-.051,0-.077,0-.979,0-1.525.433-1.525,1.075,0,1.7,6.146.563,6.144,4.56,0,1.956-1.4,3.432-4.285,3.431a9,9,0,0,1-1.16-.08,6.112,6.112,0,0,1-1.019-.222,6.52,6.52,0,0,1-.895-.357,5.052,5.052,0,0,1-.784-.467,4,4,0,0,1-.334-.275c-.073-.065-.151-.128-.219-.2A.223.223,0,0,1,24.006,73.543Z" fill="#fff"/>
    <path id="Path_160" data-name="Path 160" d="M54.909,64.372l0,10.7,7.011,0v-.652c0-.162.031-.275-.1-.413s-.286-.123-.463-.123h-5.11V70.2l5.072,0V69.014l-5.072,0,0-3.448h4.995c.127,0,.064,0,.238,0a.548.548,0,0,0,.281-.046.357.357,0,0,0,.166-.272v-.874Z" fill="#fff"/>
    <path id="Path_161" data-name="Path 161" d="M52.885,71.018l0-6.647H51.863l-.155,0a.129.129,0,0,0-.125.079.334.334,0,0,0-.03.181c0,.143,0,.275,0,.412v3.931l-6.26,0v-.008c0-.147,0-.3,0-.442v-.949c0-.387,0-.774,0-1.16,0-.369,0-.738,0-1.106v-.473a.606.606,0,0,0-.063-.375c-.072-.1-.146-.093-.25-.093l-1.02,0,0,7.349h0l0,3.364h1c.1,0,.2.009.27-.094a.608.608,0,0,0,.063-.376v-.472c0-.369,0-.737,0-1.106,0-.387,0-.773,0-1.16v-1.71l6.259,0v1.551h0V74.4c0,.137,0,.275,0,.417a.334.334,0,0,0,.03.181.129.129,0,0,0,.125.079l.155,0h1.024V71.018Zm-7.59-.856h0Z" fill="#fff"/>
    <path id="Path_162" data-name="Path 162" d="M84.7,66.3h-.214V64.655h-.582v-.19h1.378v.19H84.7Z" fill="#fff"/>
    <path id="Path_163" data-name="Path 163" d="M86.374,66.3l-.624-1.63h-.01c.012.129.018.283.018.461V66.3h-.2V64.465h.323l.581,1.516h.01l.588-1.516h.319V66.3h-.214V65.119c0-.136.006-.284.018-.443h-.01L86.546,66.3Z" fill="#fff"/>
    <path id="Path_164" data-name="Path 164" d="M68.752,70.717a2.956,2.956,0,0,0,2.777-3.111,3.117,3.117,0,0,0-3.353-3.226l-4.3,0,0,10.7h.943a.339.339,0,0,0,.334-.121.5.5,0,0,0,.07-.328c0-.211-.016-.407-.016-.617,0-.688,0-1.374,0-2.062q0-.561,0-1.123H67.34l.005.008c.028.043.056.086.083.129.061.094.121.188.181.283l.259.4q.153.24.307.48l.346.54.352.548q.171.27.344.538l.315.493.246.382.133.21a.585.585,0,0,0,.164.188.3.3,0,0,0,.169.048h1.393Zm-.738-1.059H65.206l0-4.092,2.807,0a2.047,2.047,0,1,1,0,4.091Z" fill="#fff"/>
    <path id="Path_165" data-name="Path 165" d="M41.983,65.956v-.494c0-.173,0-.346,0-.519v-.577l-8.536,0h0v1.6c.01.267.067.4.331.4h.369l2.43,0-.006,8.7h2.3l0-8.7h2.452c.093,0,.093,0,.2,0,.071,0,.071,0,.27,0a.189.189,0,0,0,.191-.215C41.986,66.085,41.983,66.021,41.983,65.956Z" fill="#fff"/>
  </g>
</svg>
